<?xml version="1.0" encoding="UTF-8" standalone="no"?>
<svg width="1500px" height="650px" viewBox="0 0 1500 650" version="1.1" xmlns="http://www.w3.org/2000/svg" xmlns:xlink="http://www.w3.org/1999/xlink">
    <!-- Generator: Sketch 49.3 (51167) - http://www.bohemiancoding.com/sketch -->
    <title>header_bg</title>
    <desc>Created with Sketch.</desc>
    <defs>
        <polygon id="path-1" points="0.00858895706 0.0394120901 69.9262781 0.0394120901 69.9262781 36.9807939 0.00858895706 36.9807939"></polygon>
    </defs>
    <g id="header_bg" stroke="none" stroke-width="1" fill="none" fill-rule="evenodd">
        <g id="Group-3" transform="translate(1195.000000, 298.000000)">
            <polygon id="Polygon" stroke="#3498DB" transform="translate(60.000000, 60.000000) rotate(90.000000) translate(-60.000000, -60.000000) " points="60 0 111.961524 30 111.961524 90 60 120 8.03847577 90 8.03847577 30"></polygon>
            <path d="M95,53.7797734 C95,42.8550516 86.1146497,34 75.1532409,34 C70.1019108,34 65.5041214,35.8982712 61.999438,38.9974553 C58.4975646,35.8982712 53.8997752,34 48.8484451,34 C37.8870363,34 29,42.8550516 29,53.7797734 C29,53.9427704 29.0224803,54.1001662 29.0269764,54.2586822 C29.0179843,54.398714 29,54.5387458 29,54.6843789 C29,72.8465048 61.999438,94.6920274 61.999438,94.6920274 C61.999438,94.6920274 95,72.8465048 95,54.6843789 C95,54.5387458 94.9842638,54.398714 94.9752716,54.2586822 C94.9797677,54.1001662 95,53.9427704 95,53.7797734 L95,53.7797734 Z" id="Stroke-51" fill="#3B99FB"></path>
        </g>
        <g id="Group-9" transform="translate(1298.000000, 125.000000)">
            <polygon id="Polygon" stroke="#3498DB" transform="translate(60.000000, 60.000000) rotate(90.000000) translate(-60.000000, -60.000000) " points="60 0 111.961524 30 111.961524 90 60 120 8.03847577 90 8.03847577 30"></polygon>
            <g id="Group-6" transform="translate(27.000000, 29.000000)">
                <path d="M31,4.6895295 C29.5431999,-0.845648376 18.489004,-2.40026171 15.7759177,5.12034869 C15.7759177,5.12034869 5.1532277,5.28901212 5.71226037,15.4934186 C5.71226037,15.4934186 -0.629859604,19.3284907 1.69957684,27.1716093 C1.69957684,27.1716093 -3.07586144,33.5428297 3.38282392,38.0948561 C3.38282392,38.0948561 0.867043259,47.4559455 8.88064683,49.8172334 C8.88064683,49.8172334 9.63190546,57.7988392 17.6449743,56.7240814 C17.6449743,56.7240814 20.3414848,65.5032011 28.8210826,63.7745358 C28.8210826,63.7745358 30.3238672,62.9250217 31,60.7100345 L31,4.6895295" id="Fill-65" fill="#3B99FB"></path>
                <path d="M16.2714645,10.8069179 C15.903051,11.2833353 14.3313183,13.4163923 13.1714065,16.5752297 C11.505716,21.1114827 11.4787925,25.6824717 13.0876138,29.826208 C11.183732,31.2249996 11.0081793,33.9667379 11.001311,34.0896499 C10.9749369,34.5658001 11.3496692,34.9714096 11.838964,34.998664 L11.8900639,35 C12.3573803,35 12.7491459,34.6446241 12.7771684,34.1855747 C12.7788168,34.1625955 12.9343142,31.8913962 14.364286,31.0721612 C15.2530389,30.5634126 16.534931,30.6927373 18.1750716,31.4566619 C18.6182117,31.662673 19.1492656,31.4809771 19.3616322,31.0499836 C19.5737241,30.6192574 19.3863579,30.1027599 18.9434925,29.8964816 C17.3343965,29.1469858 15.9192601,28.8902067 14.7159409,29.121869 C11.9112181,21.7679929 15.5511214,15.0580686 17.1052713,12.6866693 C18.049245,14.5354255 19.2423992,16.0517851 20.6597334,17.1884535 C19.900928,18.712829 20.1833509,20.3881725 20.1981863,20.4715389 C20.272913,20.8923788 20.64792,21.1881691 21.0726532,21.1881691 C21.1215552,21.1881691 21.1718309,21.1841611 21.2218318,21.1758779 C21.7045332,21.0967867 22.0309129,20.6510972 21.9515158,20.1810926 C21.9487685,20.1645262 21.6803569,18.4980003 22.5864178,17.4481718 C23.1064825,16.8461704 23.9592457,16.5340809 25.1208059,16.5212553 C25.6117491,16.5161785 26.0054378,16.1244634 25.9999432,15.64671 C25.9944486,15.1724301 25.5974631,14.7916703 25.1109156,14.7916703 L25.1007505,14.7916703 C23.712263,14.8069007 22.5894398,15.1545277 21.7515121,15.8273371 C18.1517195,12.9177972 16.9368616,7.73919564 16.5442718,4 C16.2588269,4.44836146 16.0101959,4.94027651 15.808269,5.48135634 C15.808269,5.48135634 15.4796915,5.48643314 14.9403957,5.54735472 C14.9805063,5.81882984 15.0247379,6.09404575 15.0741894,6.37380406 C15.3577112,7.97887397 15.7599165,9.46023031 16.2714645,10.8069179" id="Fill-66" fill="#1F70C4"></path>
                <path d="M19.8702148,34.2488016 C19.4088435,34.3627844 19.1271307,34.8299008 19.2408789,35.2922236 C19.3546271,35.7545464 19.8205164,36.0373729 20.2818877,35.9228574 C20.3361042,35.9095417 25.5916441,34.6597256 27.2476375,38.161501 C25.3487332,40.693091 22.5799739,43.1716844 18.5767275,45.2990083 C18.5264975,45.3256398 18.4810514,45.3501408 18.4342764,45.3754407 C17.5832909,44.3535902 16.3432226,43.8585107 16.16383,43.7908667 C15.719202,43.6228219 15.2230153,43.8478581 15.0555821,44.2936693 C14.8878832,44.7392142 15.1124563,45.2364243 15.5570842,45.4042027 C15.9581264,45.5557359 17.1676315,46.187435 17.4541282,47.0729323 C17.6061468,47.5429782 17.4878806,48.0630913 17.0926852,48.6628326 C16.8309049,49.0601745 16.940135,49.5946686 17.3363935,49.8572552 C17.4825652,49.9539275 17.6470749,50 17.80999,50 C18.0890452,50 18.3630509,49.8639131 18.5286237,49.612778 C19.243005,48.5286098 19.3097125,47.5997032 19.1869282,46.9267253 C19.2496492,46.8931697 19.3176855,46.8569508 19.3830642,46.8220636 C25.7221356,43.4537119 29.1752446,39.2320871 31,35.2133944 L31,29 C30.6956969,31.2913739 29.9406532,33.9318868 28.318678,36.5835849 C26.2619082,33.634413 22.0335572,33.7143075 19.8702148,34.2488016" id="Fill-67" fill="#1F70C4"></path>
                <path d="M22.3528476,53.2946174 C22.6599989,53.7429264 23.0992673,54.1191762 23.6613963,54.4060832 C23.7982819,54.4760152 23.9455463,54.5092528 24.0911276,54.5092528 C24.4142676,54.5092528 24.7273094,54.344926 24.8914039,54.0561576 C25.1289904,53.6378955 24.9637738,53.1156661 24.5222614,52.890448 C23.0527037,52.1403415 23.8176367,50.5715262 23.9867803,50.2628152 C24.2201592,49.8440212 24.0524181,49.3247168 23.6111861,49.10136 C23.1685517,48.8777373 22.6184844,49.0364802 22.382581,49.4560718 C22.3362979,49.5382352 21.9284459,50.2862145 21.8473804,51.2330876 C21.8364407,51.3623155 21.8341967,51.4886184 21.8361602,51.61306 C19.0271985,52.8606671 17.6631102,55.1381085 17,57.0443521 C17.3694231,57.0326525 17.7551153,57.0028716 18.1590403,56.9518186 C18.1590403,56.9518186 18.2950845,57.3682194 18.6008333,58 C19.0796527,56.4186873 20.11443,54.4071468 22.3528476,53.2946174" id="Fill-68" fill="#1F70C4"></path>
                <path d="M14.6662156,42.8773319 C14.677509,42.8463844 14.6820264,42.8151746 14.6896495,42.7839649 C15.340432,42.4978317 16.0211421,42.0729593 16.7131456,41.466336 C17.0804637,41.1447967 17.0971214,40.6074119 16.7509785,40.2664649 C16.4045533,39.9252557 15.8260485,39.9097819 15.4587305,40.2313211 C12.9346541,42.4432802 11.181635,41.3378252 10.9823064,41.1988237 C10.5884488,40.9126905 10.0189788,40.9735365 9.70586908,41.3375629 C9.3905007,41.7036875 9.45459078,42.2379252 9.84873068,42.530615 C10.3558046,42.9074926 11.2623829,43.2848946 12.4007583,43.2848946 C12.4521433,43.2848946 12.5046576,43.2830588 12.5571719,43.2814852 C11.2239853,46.4200331 9.43962702,48.3951652 8,49.5827097 C8.25833668,49.6742408 8.52768443,49.758953 8.81030193,49.8357972 C8.81030193,49.8357972 8.85858124,50.3065663 9.05706287,51 C10.8659843,49.5562207 13.135959,47.046851 14.6662156,42.8773319" id="Fill-69" fill="#1F70C4"></path>
                <path d="M4.24623087,29.6802161 C3.64471243,30.6986749 3.70723204,31.9981347 3.720002,32.1822951 C3.75139483,32.6466405 4.12917289,33 4.57771782,33 L4.63544869,32.9983679 C5.10846938,32.966269 5.46762458,32.5476237 5.43836008,32.0634205 C5.41202203,31.6298139 5.50061365,30.6382855 5.94144339,30.341779 C6.26388494,30.1255198 6.92260217,30.2468426 7.74892516,30.6755528 C8.17299433,30.8958924 8.69124197,30.722613 8.90673509,30.2890063 C9.12169613,29.8551277 8.95249412,29.3252244 8.52842495,29.1051568 C7.37966041,28.5091517 6.39743747,28.3364163 5.59638836,28.5845024 C4.50854719,27.1014262 2.53399174,26.3503672 1.23996888,26 C1.30807534,26.3174523 1.38868573,26.6417052 1.48579066,26.9735748 C1.48579066,26.9735748 1.27375607,27.2613764 1,27.7570046 C2.12588502,28.086698 3.55585478,28.6998407 4.24623087,29.6802161" id="Fill-70" fill="#1F70C4"></path>
                <path d="M7.5497727,18.3627068 C7.19575804,19.2008163 7.17101782,20.0096985 7.16999761,20.1418791 C7.1656617,20.6108307 7.52936839,20.993154 7.98361919,21 L7.99586177,21 C8.44475643,21 8.81228894,20.6268925 8.82121582,20.1618906 C8.82733711,19.8243297 8.96557626,18.8469303 9.52159351,18.3874578 C9.8677015,18.1017686 10.353834,18.0296222 11.0090672,18.1675956 C11.4551563,18.2615965 11.8920634,17.9640585 11.9831176,17.5027428 C12.0744269,17.0414271 11.7862161,16.5914337 11.3393618,16.4974327 C10.2357441,16.2649318 9.30785844,16.4302892 8.57891472,16.9869224 C7.52885829,16.4750516 6.66575627,15.7480581 5.97813127,15 C5.97991664,15.2069601 5.98450761,15.4168166 5.99598503,15.6329925 C5.99598503,15.6329925 5.57693166,15.8928775 5,16.4150173 C5.69808221,17.1325317 6.54384057,17.8231887 7.5497727,18.3627068" id="Fill-71" fill="#1F70C4"></path>
                <path d="M22.2610902,7.58236911 C21.9167466,7.90302372 21.9124187,8.42721984 22.2516228,8.75298856 C22.4228479,8.91740715 22.6492544,9 22.875661,9 C23.0971987,9 23.3190068,8.92073132 23.4894204,8.76219395 C23.6644324,8.5995653 26.8611745,5.59886211 29,1.90161734 C28.5596297,1.5559036 28.0627254,1.25391549 27.5247054,1 C25.497325,4.54433293 22.3022059,7.544269 22.2610902,7.58236911" id="Fill-72" fill="#1F70C4"></path>
                <path d="M25.3743544,23.3993763 C24.9904014,23.6648443 24.8843057,24.2060216 25.1379568,24.6081315 C25.2983879,24.8620105 25.5638845,25 25.8345315,25 C25.9921299,25 26.1515309,24.9531051 26.292906,24.8555423 C26.3511041,24.8151157 27.7370432,23.8551188 29.2136271,22.5746737 C29.913807,21.9674662 30.5068612,21.3993378 31,20.8657067 L31,18 C30.503256,19.012821 28.7593728,21.0594848 25.3743544,23.3993763" id="Fill-73" fill="#1F70C4"></path>
                <path d="M35,4.6895295 C36.457063,-0.845648376 47.5109574,-2.40026171 50.2243028,5.12034869 C50.2243028,5.12034869 60.8469601,5.28901212 60.2876618,15.4934186 C60.2876618,15.4934186 66.6300296,19.3284907 64.3006003,27.1716093 C64.3006003,27.1716093 69.0757565,33.5428297 62.6170911,38.0948561 C62.6170911,38.0948561 65.1331313,47.4559455 57.1195524,49.8172334 C57.1195524,49.8172334 56.3682961,57.7988392 48.3552519,56.7240814 C48.3552519,56.7240814 45.6587497,65.5032011 37.179178,63.7745358 C37.179178,63.7745358 35.676398,62.9250217 35,60.7100345 L35,4.6895295" id="Fill-74" fill="#3B99FB"></path>
                <path d="M49.7286964,10.8069179 C50.097116,11.2833353 51.6688747,13.4163923 52.8285309,16.5752297 C54.4945237,21.1114827 54.521173,25.6824717 52.9125998,29.826208 C54.816513,31.2249996 54.9920687,33.9667379 54.9986623,34.0896499 C55.0253116,34.5658001 54.6505731,34.9714096 54.1612702,34.998664 L54.1098947,35 C53.6428453,35 53.2510733,34.6446241 53.2227756,34.1855747 C53.2214019,34.1625955 53.0659019,31.8913962 51.6359065,31.0721612 C50.7471389,30.5634126 49.4652256,30.6927373 47.8247831,31.4566619 C47.3819104,31.662673 46.8508477,31.4809771 46.6384776,31.0499836 C46.4263822,30.6192574 46.6137515,30.1027599 47.0566242,29.8964816 C48.6657468,29.1469858 50.0806319,28.8902067 51.2842457,29.121869 C54.0890149,21.7679929 50.4490514,15.0580686 48.8948758,12.6866693 C47.9508865,14.5354255 46.7577126,16.0517851 45.3400802,17.1884535 C46.0991729,18.712829 45.8167454,20.3881725 45.8019097,20.4715389 C45.7271818,20.8923788 45.3521685,21.1881691 44.9274283,21.1881691 C44.8782507,21.1881691 44.828249,21.1841611 44.7782472,21.1758779 C44.2952632,21.0967867 43.9691528,20.6510972 44.0482764,20.1810926 C44.0512985,20.1645262 44.3197146,18.4980003 43.413364,17.4481718 C42.8932907,16.8461704 42.0407881,16.5340809 40.8792087,16.5212553 C40.3879826,16.5161785 39.9945622,16.1244634 40.0000569,15.64671 C40.0055516,15.1724301 40.4025436,14.7916703 40.8890992,14.7916703 L40.8992644,14.7916703 C42.2877748,14.8069007 43.4106166,15.1545277 44.2485582,15.8273371 C47.8481356,12.9177972 49.0632883,7.73919564 49.4558846,4 C49.7413342,4.44836146 49.9896946,4.94027651 50.1918995,5.48135634 C50.1918995,5.48135634 50.5204825,5.48643314 51.0597873,5.54735472 C51.0194012,5.81882984 50.9754436,6.09404575 50.9259913,6.37380406 C50.6421901,7.97887397 50.2402529,9.46023031 49.7286964,10.8069179" id="Fill-75" fill="#1F70C4"></path>
                <path d="M46.1299648,34.2488016 C46.5913325,34.3627844 46.8730432,34.8299008 46.7592959,35.2922236 C46.6455485,35.7545464 46.1796628,36.0373729 45.7180293,35.9228574 C45.6638133,35.9095417 40.4085798,34.6597256 38.7525992,38.161501 C40.6514888,40.693091 43.4202267,43.1716844 47.4234422,45.2990083 C47.4736717,45.3256398 47.5191175,45.3501408 47.5658921,45.3754407 C48.416871,44.3535902 49.6569297,43.8585107 49.8363209,43.7908667 C50.2806797,43.6228219 50.7771284,43.8478581 50.9445602,44.2936693 C51.1119921,44.7392142 50.8874208,45.2364243 50.4427962,45.4042027 C50.0420229,45.5557359 48.8325272,46.187435 48.5460327,47.0729323 C48.3940153,47.5429782 48.5122806,48.0630913 48.9072071,48.6628326 C49.1692512,49.0601745 49.0600219,49.5946686 48.6637666,49.8572552 C48.5175959,49.9539275 48.3530875,50 48.1901737,50 C47.9108548,50 47.6371171,49.8639131 47.4715456,49.612778 C46.7571698,48.5286098 46.6904628,47.5997032 46.8132461,46.9267253 C46.7505256,46.8931697 46.6822241,46.8569508 46.6171117,46.8220636 C40.2780893,43.4537119 36.825007,39.2320871 35,35.2133944 L35,29 C35.3043007,31.2913739 36.0596043,33.9318868 37.681567,36.5835849 C39.7383209,33.634413 43.9666392,33.7143075 46.1299648,34.2488016" id="Fill-76" fill="#1F70C4"></path>
                <path d="M44.6469703,53.2946174 C44.3400891,53.7429264 43.9008057,54.1191762 43.3386576,54.4060832 C43.2017673,54.4760152 43.0542175,54.5092528 42.9089117,54.5092528 C42.5857607,54.5092528 42.2727082,54.344926 42.1086081,54.0561576 C41.8710136,53.6378955 42.0362358,53.1156661 42.4774827,52.890448 C43.9473709,52.1403415 43.1824119,50.5715262 43.0132626,50.2628152 C42.7798757,49.8440212 42.9476225,49.3247168 43.3888695,49.10136 C43.831519,48.8777373 44.381605,49.0364802 44.6172359,49.4560718 C44.6635206,49.5382352 45.071667,50.2862145 45.1527353,51.2330876 C45.1636753,51.3623155 45.1659194,51.4886184 45.1639558,51.61306 C47.9727325,52.8606671 49.3371478,55.1381085 50,57.0443521 C49.6305644,57.0326525 49.244859,57.0028716 48.8412008,56.9518186 C48.8412008,56.9518186 48.705152,57.3682194 48.3993928,58 C47.9205571,56.4186873 46.8854641,54.4071468 44.6469703,53.2946174" id="Fill-77" fill="#1F70C4"></path>
                <path d="M51.3338576,42.8773319 C51.3222815,42.8463844 51.317764,42.8151746 51.310423,42.7839649 C50.65962,42.4978317 49.9788886,42.0729593 49.2868634,41.466336 C48.9195338,41.1447967 48.9028755,40.6074119 49.2490293,40.2664649 C49.5954654,39.9252557 50.1739883,39.9097819 50.5410356,40.2313211 C53.0654735,42.4432802 54.8185475,41.3378252 55.0176001,41.1988237 C55.4117523,40.9126905 55.9809579,40.9735365 56.2940774,41.3375629 C56.609738,41.7036875 56.5456459,42.2379252 56.1514937,42.530615 C55.6444038,42.9074926 54.7377971,43.2848946 53.5991037,43.2848946 C53.5479994,43.2848946 53.4952011,43.2830588 53.4429674,43.2814852 C54.7759136,46.4200331 56.5606102,48.3951652 58,49.5827097 C57.7416552,49.6742408 57.4725814,49.758953 57.189955,49.8357972 C57.189955,49.8357972 57.1416742,50.3065663 56.9431863,51 C55.1342081,49.5562207 52.8638798,47.046851 51.3338576,42.8773319" id="Fill-78" fill="#1F70C4"></path>
                <path d="M61.7538166,29.6802161 C62.3553262,30.6986749 62.2928075,31.9981347 62.2800378,32.1822951 C62.2486454,32.6466405 61.8708729,33 61.4223345,33 L61.3646045,32.9983679 C60.8913247,32.966269 60.5324408,32.5476237 60.5617048,32.0634205 C60.5880425,31.6298139 60.4994522,30.6382855 60.0583628,30.341779 C59.736192,30.1255198 59.0774844,30.2468426 58.2511735,30.6755528 C57.8271106,30.8958924 57.3088705,30.722613 57.0933805,30.2890063 C56.8781566,29.8551277 57.0476222,29.3252244 57.4716851,29.1051568 C58.6204329,28.5091517 59.6023754,28.3364163 60.4034128,28.5845024 C61.4915041,27.1014262 63.4660307,26.3503672 64.7597686,26 C64.6919292,26.3174523 64.61132,26.6417052 64.5142164,26.9735748 C64.5142164,26.9735748 64.7262479,27.2613764 65,27.7570046 C63.8738654,28.086698 62.4441826,28.6998407 61.7538166,29.6802161" id="Fill-79" fill="#1F70C4"></path>
                <path d="M58.4502273,18.3627068 C58.804242,19.2008163 58.8287271,20.0096985 58.8300024,20.1418791 C58.8343383,20.6108307 58.4706316,20.993154 58.0161258,21 L58.0041382,21 C57.5552436,21 57.187456,20.6268925 57.1787842,20.1618906 C57.1726629,19.8243297 57.0344237,18.8469303 56.4784065,18.3874578 C56.1322985,18.1017686 55.6459109,18.0296222 54.9909328,18.1675956 C54.5448437,18.2615965 54.1079366,17.9640585 54.0168824,17.5027428 C53.9255731,17.0414271 54.2137839,16.5914337 54.6606382,16.4974327 C55.7642559,16.2649318 56.6918865,16.4302892 57.4208302,16.9869224 C58.4711417,16.4750516 59.3339887,15.7480581 60.0218687,15 C60.0200834,15.2069601 60.0154924,15.4168166 60.0037599,15.6329925 C60.0037599,15.6329925 60.4230683,15.8928775 61,16.4150173 C60.3019178,17.1325317 59.4559044,17.8231887 58.4502273,18.3627068" id="Fill-80" fill="#1F70C4"></path>
                <path d="M42.7389098,7.58236911 C43.0832534,7.90302372 43.0875813,8.42721984 42.7483772,8.75298856 C42.5768816,8.91740715 42.3507456,9 42.124339,9 C41.9028013,9 41.6809932,8.92073132 41.5105796,8.76219395 C41.3355676,8.5995653 38.1388255,5.59886211 36,1.90161734 C36.4400998,1.5559036 36.9370041,1.25391549 37.4752946,1 C39.502675,4.54433293 42.6977941,7.544269 42.7389098,7.58236911" id="Fill-81" fill="#1F70C4"></path>
                <path d="M40.6257681,23.3993763 C41.0097119,23.6648443 41.1155475,24.2060216 40.8621601,24.6081315 C40.7017329,24.8620105 40.4362425,25 40.1656021,25 C40.0080074,25 39.8486102,24.9531051 39.7072386,24.8555423 C39.6490419,24.8151157 38.2631361,23.8551188 36.7865876,22.5746737 C36.0864245,21.9674662 35.4933845,21.3993378 35,20.8657067 L35,18 C35.4969896,19.012821 37.240831,21.0594848 40.6257681,23.3993763" id="Fill-82" fill="#1F70C4"></path>
            </g>
        </g>
        <g id="Group-4" transform="translate(1399.000000, 297.000000)">
            <polygon id="Polygon" stroke="#3498DB" transform="translate(60.000000, 60.000000) rotate(90.000000) translate(-60.000000, -60.000000) " points="60 0 111.961524 30 111.961524 90 60 120 8.03847577 90 8.03847577 30"></polygon>
            <g id="Group" transform="translate(27.000000, 32.000000)">
                <path d="M38.1213178,51.4674987 C29.5649446,57.2077927 17.8102741,55.8793091 10.823965,48.013145 C3.26749854,39.5032419 0,0 0,0 C0,0 34.5404082,12.5684723 42.0913586,21.0675064 C42.4112886,21.4271702 42.7136676,21.7932566 43,22.1692239 C38.2130845,26.1235498 34.1582974,30.1228338 33.0209913,33.0663463 C30.4219359,39.8070788 32.6955452,47.1910562 38.1213178,51.4674987 L38.1213178,51.4674987 Z" id="Stroke-127" fill="#3B99FB"></path>
                <path d="M64.6888117,45.3861114 C61.3744638,53.885079 51.6150633,58.1501398 42.8951042,54.9216978 C41.2087846,54.2981186 39.6865059,53.4393782 38.3525131,52.4032619 C32.7709964,48.0537843 30.4321243,40.5436997 33.1057842,33.6878458 C34.2757362,30.6940626 38.446914,26.6264769 43.3712354,22.6046171 C52.4136019,15.2136206 63.9779679,8 63.9779679,8 C63.9779679,8 68.0083182,36.8921686 64.6888117,45.3861114 L64.6888117,45.3861114 Z" id="Stroke-129" fill-opacity="0.800000012" fill="#3B99FB"></path>
                <path d="M56,29 C47.2959176,32.1154465 42.8389534,41.509294 46.0338306,50" id="Stroke-131" stroke-opacity="0.352100317" stroke="#465366" stroke-width="1.79425837"></path>
                <path d="M16.0616322,14 C15.2621636,26.6028412 22.3128389,37.8721649 33,43" id="Stroke-133" stroke-opacity="0.352100317" stroke="#465366" stroke-width="1.79425837"></path>
            </g>
        </g>
        <g id="Group-5" transform="translate(1399.000000, 417.000000)">
            <polygon id="Polygon" stroke="#3498DB" fill="#3B99FB" transform="translate(60.000000, 60.000000) rotate(90.000000) translate(-60.000000, -60.000000) " points="60 0 111.961524 30 111.961524 90 60 120 8.03847577 90 8.03847577 30"></polygon>
            <g id="icons/sleep" transform="translate(28.000000, 28.000000)" fill="#FFFFFF" fill-rule="nonzero">
                <path d="M17.3956626,12.36824 C17.3956626,8.13239727 18.1806963,3.99123961 19.7362991,0 C7.89636058,5.55222854 0,17.5601392 0,30.8081615 C0,49.6610152 15.3337986,65 34.1811818,65 C47.4373369,65 59.4508507,57.1003702 65,45.2515831 C60.9985637,46.8086269 56.8524812,47.5950391 52.6196112,47.5950391 C33.1975886,47.5950391 17.3956626,31.7931495 17.3956626,12.36824 Z" id="Shape"></path>
            </g>
        </g>
        <g id="Group-2" transform="translate(1298.000000, 357.000000)">
            <polygon id="Polygon" stroke="#3498DB" fill="#3B99FB" transform="translate(60.000000, 60.000000) rotate(90.000000) translate(-60.000000, -60.000000) " points="60 0 111.961524 30 111.961524 90 60 120 8.03847577 90 8.03847577 30"></polygon>
            <g id="icons/steps" transform="translate(36.000000, 24.000000)" fill="#FFFFFF" fill-rule="nonzero">
                <path d="M17.4595183,51.352276 C8.83424339,54.7052641 6.1537694,46.9707992 5.67362718,37.7355216 L18.9005851,35.2939011 C18.2059794,40.1233817 23.7064887,48.9234556 17.4595183,51.352276 Z M13.4026366,0.405928216 C6.52635977,-2.25585413 -2.3351451,8.51799632 0.565554113,22.6121947 C1.46822149,27.0007115 4.53216907,31.1735465 5.42139246,35.5307031 L19.6931399,32.895801 C24.3325942,12.7125915 19.798131,2.881469 13.4026366,0.405928216 Z M30.540513,63.2026154 C39.1657879,66.5556036 41.8456217,58.8211387 42.3257639,49.5858611 L29.098806,47.1442406 C29.7940519,51.9737212 24.2929024,60.7737951 30.540513,63.2026154 Z M28.3062512,44.7455005 L42.5779986,47.3804026 C43.4678622,43.023246 46.5318098,38.851051 47.4344772,34.4618941 C50.3351764,20.3676958 41.4730313,9.59384536 34.5967545,12.2556277 C28.2012601,14.7318085 23.6667969,24.562931 28.3062512,44.7455005 Z" id="steps-icon"></path>
            </g>
        </g>
        <g id="Group-8" transform="translate(1196.000000, 181.000000)">
            <polygon id="Polygon" stroke="#3498DB" transform="translate(60.000000, 60.000000) rotate(90.000000) translate(-60.000000, -60.000000) " points="60 0 111.961524 30 111.961524 90 60 120 8.03847577 90 8.03847577 30"></polygon>
            <path d="M63.9974273,66.8020147 C63.7371141,67.2567043 63.4107266,67.7696382 63.1387371,68.1737762 C62.8667475,68.5662379 62.53253,68.9470233 62.2293578,69.327946 L62.2293578,65.1932927 C63.1076918,65.5430328 64.0012736,66.1337172 64.0869915,66.3629851 C64.1257295,66.3863378 64.1801274,66.4601046 63.9974273,66.8020147 M62.6725085,76.952033 C62.5557453,77.1539646 62.3808753,77.3328183 62.2293578,77.5270573 L62.2293578,74.1542495 C62.3303237,74.2862606 62.4586258,74.4182717 62.5480527,74.5465738 C63.0027423,75.2966056 63.1387371,76.2525528 62.6725085,76.952033 M64.1957874,82.3767135 C64.8951302,83.2083422 64.8874376,84.1486293 64.0479789,84.9569053 C63.4963072,85.6640781 62.8550712,86.3092978 62.2293578,86.9464127 L62.2293578,80.5036945 C62.9521907,81.0865489 63.6671935,81.6694033 64.1957874,82.3767135 M59.1751075,85.0580085 C58.3241099,84.2419025 58.3046035,83.301478 58.9730385,82.4698493 C59.4626197,81.8093818 60.1153946,81.2574353 60.7761369,80.6901035 L60.7761369,86.7600037 C60.2281741,86.2080573 59.6608424,85.6640781 59.1751075,85.0580085 M60.4457657,76.9208503 C59.9600309,76.2292001 60.0649804,75.273253 60.51967,74.5233586 C60.5934368,74.4028864 60.698249,74.2977996 60.7761369,74.1890037 L60.7761369,77.3328183 C60.6711874,77.2006699 60.5351926,77.0608288 60.4457657,76.9208503 M58.9496858,66.8991342 C58.7631395,66.5415641 58.8213837,66.4834573 58.8603963,66.4601046 C58.9380095,66.2191604 59.8939566,65.5779244 60.7761369,65.216508 L60.7761369,69.4210818 C60.4612884,69.0441428 60.1232246,68.6633574 59.8357124,68.2553731 C59.5403702,67.8395587 59.2218128,67.3381638 58.9496858,66.8991342 M101.836532,41.1163104 C101.936811,41.0113609 102,40.9142414 102,40.9142414 C90.6683383,40.9142414 74.565183,34.6734548 74.565183,34.6734548 C74.565183,34.6734548 70.4053913,32.1475236 67.2188551,35.2679855 C64.8951302,37.5645115 63.1465671,39.2820293 62.2293578,40.1914085 L62.2293578,36.1500284 C63.8924778,35.8081183 65.1477508,34.3976189 65.1477508,32.6489184 C65.1477508,30.6320747 63.5272151,29 61.4989697,29 C59.4858349,29 57.8460676,30.6320747 57.8460676,32.6489184 C57.8460676,34.4091579 59.1207096,35.8081183 60.7761369,36.1500284 L60.7761369,40.1991012 C59.8589277,39.305382 58.1063808,37.5800341 55.763287,35.2679855 C52.6117798,32.1475236 48.4344049,34.6734548 48.4344049,34.6734548 C48.4344049,34.6734548 32.323557,40.9142414 21,40.9142414 C21,40.9142414 21.0543979,41.0113609 21.1748701,41.1163104 C24.6061968,41.333902 32.086459,41.4660505 39.5435059,39.2704904 C39.5435059,39.2704904 32.4789207,42.6783272 21.3108648,41.2716741 C22.4028067,42.390815 26.8755238,45.7015323 38.7857815,41.7263637 C41.2299785,40.9142414 41.2299785,40.9142414 39.6057339,41.7263637 C39.6057339,41.7263637 34.8066293,44.5746988 26.7161764,45.3829748 C26.7161764,45.3829748 26.9532744,45.9891818 27.8469936,46.5720362 C30.0464,46.4904393 36.8932562,45.9581365 43.5304882,42.5461787 C43.5304882,42.5461787 37.6509807,47.0150495 27.9246068,46.6109115 C29.8753763,47.7999729 34.7405551,48.7792726 46.6003985,43.8713722 C46.6003985,43.8713722 48.0924948,43.4633879 47.0511045,44.0734412 C45.9902078,44.6796483 38.4710704,47.9087687 32.552825,48.351782 C32.552825,48.351782 33.2599978,48.957989 34.7794303,49.3854796 C37.9658292,48.8375169 44.2221384,47.5046307 50.0549406,44.6446193 C50.0549406,44.6446193 44.7622712,48.2778777 35.0514199,49.4554002 C37.8880786,50.1470504 43.2856976,50.2558462 52.2660234,45.8842323 C52.2660234,45.8842323 53.3928568,45.6549643 52.5301829,46.0863013 C51.6947079,46.5409909 45.9514699,49.6806845 40.9968643,50.170403 C40.6082489,50.2209546 42.2791989,50.7766101 44.8905733,50.8036716 C47.1015187,50.2791989 51.014734,49.0746148 54.6286235,46.5253309 C54.6286235,46.5253309 51.5587131,49.6341166 45.7765999,50.7766101 C48.7609297,50.6599842 52.7088993,49.8128329 56.3383114,46.9062537 C56.3383114,46.9062537 59.2762107,48.8608695 60.7761369,49.5291671 L60.7761369,61.3229363 C59.5637229,60.7866498 58.3746615,60.2892386 57.2787359,59.7140769 C56.3578177,59.2478483 55.4796211,58.6883466 54.9316583,58.1520601 C54.6518388,57.8799332 54.111706,56.7220544 54.8073399,56.0924948 C55.4135469,55.8281978 56.4472446,55.9836989 57.0728205,56.2012906 L57.0844969,56.1662616 C58.3434788,56.3566543 59.4666034,55.7816299 59.711394,54.3671469 C59.9289856,52.9371412 59.3771765,51.9578414 58.1530861,51.7325572 L58.1530861,51.6858519 C56.6725289,51.4138623 55.3629953,51.3399581 53.6648464,51.9463025 C52.844894,52.2571673 51.9628512,52.8905733 51.4110421,53.7687699 C50.8437103,54.6546591 50.6494713,55.6184362 50.5989197,56.4150359 C50.5794134,56.8307129 50.5989197,57.2116356 50.618426,57.5847284 C50.6494713,57.9421611 50.812665,58.6883466 51.0185804,59.0613019 C51.4265647,59.9783738 52.0250791,60.5845808 52.5845808,61.0509467 C53.7270743,61.9523586 54.8383852,62.4420771 55.9341734,62.8966294 C56.6221146,63.1804326 57.2942585,63.3980243 57.9705234,63.6349849 C57.4731122,64.0624755 56.8669052,64.563733 56.5093351,65.5430328 C56.1285497,66.5922531 56.5560404,67.7462855 57.0029,68.3174636 C57.3720091,68.7916595 57.6868576,69.2191502 58.0948419,69.7009014 C58.7399242,70.4936548 59.4703123,71.2241802 60.1854525,71.9159678 C59.7734845,72.4365943 59.3693465,72.9962334 59.0352664,73.7034062 C58.4522746,74.8923303 58.3706778,76.5866329 59.2915959,77.7369564 C59.7267792,78.3198107 60.2086678,78.8016993 60.706079,79.22919 C60.6595111,79.2757579 60.6206358,79.3146331 60.5817605,79.3613384 C59.7968371,80.1617844 58.9380095,80.9233552 58.2852346,81.9724381 C57.9782161,82.493202 57.7139192,83.1461143 57.803346,83.8609797 C57.8927729,84.5529047 58.3978767,85.1045764 58.7631395,85.4621465 C59.3850065,86.1149214 60.092042,86.6977758 60.7761369,87.2729376 L60.7761369,88.7806938 C60.51184,89.1304339 60.3408162,89.4956966 60.2864183,89.8920046 C60.3836752,89.5344345 60.6051132,89.1614792 60.7761369,88.8039091 L60.7761369,90.3817232 L62.2293578,90.3817232 L62.2293578,88.7261585 C62.5790979,89.2470597 62.788997,89.8687894 62.6568485,90.5604396 C62.7656443,90.0008005 62.7422917,89.3792082 62.5013474,88.8506143 C62.4275805,88.6874206 62.322631,88.5554095 62.2293578,88.4154311 L62.2293578,87.4127787 C62.983236,86.7600037 63.7681593,86.1070914 64.4676396,85.3533507 C64.8250723,85.0036106 65.3224835,84.4594941 65.400234,83.7444913 C65.4858146,83.0294884 65.205995,82.3844061 64.8874376,81.8637797 C64.2111726,80.837912 63.3484987,80.0840339 62.5480527,79.2757579 C62.5247,79.2679279 62.5013474,79.2368826 62.4781321,79.2136673 C62.9443607,78.7860393 63.4028966,78.3198107 63.8187109,77.752479 C64.7319365,76.5866329 64.6231407,74.9079903 64.0129499,73.7149452 C63.6593635,72.9962334 63.2320102,72.4365943 62.7928433,71.9003078 C63.5116924,71.177475 64.2500479,70.4235968 64.8951302,69.5921056 C65.2914382,69.1140633 65.6062867,68.6983863 65.9715495,68.1853151 C66.4028864,67.6258134 66.8302397,66.4601046 66.4262391,65.4108843 C66.076499,64.4822735 65.5091672,64.0042313 65.019586,63.5999559 C65.6722236,63.359149 66.3096132,63.1454037 66.9702182,62.8616004 C68.0583138,62.3953719 69.1617946,61.8825754 70.2809355,60.9653662 C70.8327446,60.5029839 71.415599,59.8579017 71.827567,58.9525061 C72.013976,58.5717208 72.1773071,57.8100126 72.1773071,57.4757952 C72.2161823,57.0951472 72.2240123,56.7142244 72.2006597,56.3100864 C72.1539544,55.4979641 71.9208402,54.5458633 71.3613384,53.6638204 C70.7783467,52.8049927 69.8767974,52.1755705 69.0606914,51.8762446 C67.3510036,51.2933902 66.0609763,51.3983397 64.5647591,51.6858519 L64.5764354,51.7325572 C63.3484987,51.9811941 62.8238885,52.9721702 63.0531565,54.3788232 C63.3252834,55.8049826 64.440578,56.3566543 65.7112362,56.1392 L65.7112362,56.1779379 C66.3483512,55.9603463 67.3743562,55.7816299 67.9882558,56.0457895 C68.6800434,56.6676565 68.1748022,57.8333653 67.8871527,58.1053548 C67.3510036,58.6805166 66.4804996,59.201143 65.5790878,59.6908616 C64.5298675,60.2620397 63.3950666,60.7749735 62.2293578,61.2995837 L62.2293578,49.5291671 C63.7371141,48.8491932 66.6593534,46.9062537 66.6593534,46.9062537 C70.2887655,49.8128329 74.2309656,50.6599842 77.2154328,50.7766101 C71.4544742,49.6341166 68.3690412,46.5253309 68.3690412,46.5253309 C71.9906233,49.0746148 75.8942229,50.2791989 78.109152,50.8036716 C80.736049,50.7766101 82.3836464,50.2209546 82.0027236,50.170403 C77.0521017,49.6806845 71.3068031,46.5409909 70.4597892,46.0863013 C69.6126379,45.6549643 70.7394714,45.8842323 70.7394714,45.8842323 C79.717874,50.2558462 85.1270319,50.1470504 87.9404754,49.4554002 C78.2413004,48.2778777 72.9544005,44.6446193 72.9544005,44.6446193 C78.7697569,47.5046307 85.0337587,48.8375169 88.2201575,49.3854796 C89.7512664,48.957989 90.443054,48.351782 90.443054,48.351782 C84.5364849,47.9087687 77.0210564,44.6796483 75.9641434,44.0734412 C74.9070931,43.4633879 76.4071567,43.8713722 76.4071567,43.8713722 C88.2512028,48.7792726 93.1242116,47.7999729 95.0671511,46.6109115 C85.3602836,47.0150495 79.4847597,42.5461787 79.4847597,42.5461787 C86.1140243,45.9581365 92.9531879,46.4904393 95.1449017,46.5720362 C96.0541435,45.9891818 96.2873952,45.3829748 96.2873952,45.3829748 C88.1969423,44.5746988 83.393854,41.7263637 83.393854,41.7263637 C81.792962,40.9142414 81.792962,40.9142414 84.2099601,41.7263637 C96.1318941,45.7015323 100.593347,42.390815 101.704658,41.2716741 C90.5206672,42.6783272 83.4483893,39.2704904 83.4483893,39.2704904 C90.9248052,41.4660505 98.3856984,41.333902 101.836532,41.1163104" id="Fill-2548" fill="#3B99FB"></path>
        </g>
        <g id="Group-10" transform="translate(1298.000000, 240.000000)">
            <polygon id="Polygon" stroke="#3498DB" fill="#3B99FB" transform="translate(60.000000, 60.000000) rotate(90.000000) translate(-60.000000, -60.000000) " points="60 0 111.961524 30 111.961524 90 60 120 8.03847577 90 8.03847577 30"></polygon>
            <g id="icon_03272" transform="translate(24.000000, 24.000000)">
                <path d="M54.4576329,18.4821928 C54.6275864,18.6275897 54.9804789,18.6110382 55.2035161,18.6427145 C55.6498759,18.7057816 56.0975199,18.7642829 56.5457348,18.8155071 C57.3605411,18.9079676 58.1794857,18.9771703 59,19 L56.1002312,16.1011929 L54.0228317,14 C54.0228317,14.0082758 54.0239733,14.0165516 54.0239733,14.02497 L54,14.0004281 C54.0402409,15.4289995 54.2213248,16.9176417 54.4576329,18.4821928" id="Fill-1" fill="#FFFFFF"></path>
                <path d="M45.9906992,32.0679904 C44.8922292,30.9718055 43.7945058,29.8750241 42.6960358,28.7780937 C42.1921971,28.2749611 41.6665562,27.5438232 41.0681917,27.1523819 C40.74549,26.940929 40.4030768,27.0096735 39.9919718,27.0142963 C39.2190408,27.0241382 38.4479017,27.0918389 37.6819892,27.2006969 C37.4608318,27.2275386 37.2293706,27.2467751 37.0170236,27.2788361 L37.029866,27.2910639 C37.0198609,27.2927043 37.0100051,27.2933007 37,27.2950902 L45.717127,36 C45.9591906,34.7382914 46.0274343,33.4293115 45.9906992,32.0679904" id="Fill-2" fill="#FFFFFF"></path>
                <path d="M30,31.9770018 L41.0229982,43 C41.3741411,42.7184126 41.7198149,42.4017669 42.0610013,42.0610013 C42.4017669,41.7198149 42.7184126,41.3741411 43,41.0229982 L31.9770018,30 C31.2528397,30.5812649 30.5812649,31.2528397 30,31.9770018" id="Fill-3" fill="#FFFFFF"></path>
                <path d="M31.931953,45.8480361 C32.2545057,46.0590409 32.5969193,45.9902966 33.0081741,45.9856739 C33.7799113,45.9762793 34.5498567,45.9081315 35.3139781,45.7997212 C35.5361811,45.7734761 35.7695839,45.7537923 35.9831257,45.7217315 L35.9702833,45.7089071 C35.9801391,45.7072668 35.9899949,45.7066703 36,45.7048809 L30.4135658,40.1263011 L27.3061585,37.0046227 C27.3055612,37.009991 27.3055612,37.0164032 27.3045159,37.0216224 L27.282863,37 C27.0409485,38.2617044 26.9725554,39.5706799 27.0092905,40.9318474 C28.1077618,42.0287743 29.2056357,43.1249555 30.3039577,44.2218823 C30.8079463,44.7250133 31.3334385,45.4561487 31.931953,45.8480361" id="Fill-4" fill="#FFFFFF"></path>
                <path d="M19,59 C18.9754552,58.227071 18.9130944,57.4558489 18.8289001,56.6874716 C18.7848051,56.2863564 18.7341458,55.8863792 18.6800616,55.4868286 C18.6499515,55.2645084 18.6672184,54.6567194 18.5123866,54.5022474 C18.3741081,54.3649863 17.8572407,54.3804904 17.6605971,54.3533227 C17.2586049,54.2984183 16.8561847,54.2472121 16.4526229,54.2016955 C16.1264056,54.1655667 15.7981905,54.1556099 15.4715452,54.127731 C14.9603859,54.0805075 14.4693476,54.0388314 14.0161253,54 L14.034962,54.0189178 C14.0234032,54.0183489 14.0115589,54.016642 14,54.0160731 L19,59" id="Fill-5" fill="#FFFFFF"></path>
                <path d="M8.41378433,54 C7.641218,54.388225 6.90130341,54.8905154 6.18152648,55.5018367 C6.12744252,55.545708 6.07019407,55.5810927 6.01625396,55.6265463 L6.0185554,55.6282724 C6.01237027,55.6338821 6.00618513,55.6373343 6,55.6429441 L17.3576313,67 C18.0420235,66.2245569 18.5791232,65.4233663 19,64.586791 L8.41378433,54" id="Fill-6" fill="#FFFFFF"></path>
                <path d="M66.8245168,17.4937042 C66.8762987,17.4514152 66.9325396,17.4166058 66.9836024,17.3734537 L66.981301,17.3717276 C66.987486,17.365974 66.9936711,17.3626657 67,17.3570559 L56.3232831,6.68036469 L55.659755,6.01510323 L55.6593235,6.01567859 L55.6429259,6 C54.9579659,6.7752993 54.4158377,7.58166811 54,8.41320897 L64.5866739,19 C65.3563549,18.6150833 66.1020148,18.10819 66.8245168,17.4937042" id="Fill-7" fill="#FFFFFF"></path>
                <path d="M25.3674124,36.4941321 C26.5552442,31.1765209 30.9659038,26.6558107 36.2068351,25.3870943 C36.4697967,25.3235588 36.734729,25.2758359 36.9998022,25.2268309 C37.1625343,25.1962028 37.3263926,25.1668568 37.4930663,25.1412146 C38.0484108,25.0565955 38.6076968,25.0020347 39.1685314,24.9708368 C39.3176086,24.9625743 39.465982,24.9526024 39.618297,24.947474 C41.1921249,24.8957623 42.7762291,25.0232607 44.3373875,25.2207053 C44.5507974,25.2501937 44.7547757,25.2746962 44.9780396,25.3093131 L44.9769134,25.3024752 C44.9846559,25.3036149 44.9923983,25.3047545 45,25.3058942 C44.7140926,23.6098087 44.4211467,21.9137232 44.1916888,20.208663 C39.5507266,19.7089261 34.7881376,19.9999644 30.5996158,22.2658754 C26.0509999,24.7276638 22.3789695,29.1037808 20.9173367,34.1257951 C19.4634463,39.1190331 20.1716688,44.3830806 21.0008143,49.4186282 C21.7498606,53.9644108 22.8226819,58.9247414 21.5524987,63.4745128 C21.5364507,63.5300707 21.5194173,63.5856287 21.5035101,63.6413292 C21.4242556,63.9118538 21.3396518,64.1810963 21.243364,64.4487718 C20.7776911,65.7364349 20.10621,66.9406185 19.2753753,68.0234294 C19.059713,68.303926 18.8343375,68.5761601 18.6000933,68.8404166 C18.5054947,68.9472589 17.9908333,69.3784743 18.0001242,69.4887355 C18.0078667,69.5833266 18.3179868,69.810402 18.3834456,69.8759319 C19.4122054,70.9171455 20.4411059,71.9587864 21.4698657,73 C27.0324603,67.3708368 27.4543532,60.9279628 26.7692172,54.7618815 C26.1225119,48.7871191 24.0213532,42.5184693 25.3674124,36.4941321" id="Fill-8" fill="#FFFFFF"></path>
                <path d="M27.0099627,55.0629542 C28.1771888,62.0697966 26.8749415,54.2295926 27.0099627,55.0629542" id="Fill-9" fill="#FFFFFF"></path>
                <path d="M71.3821166,22.8797837 C71.4627335,22.815318 71.5432082,22.7521219 71.6232564,22.6859635 C72.0680002,22.3166612 72.509616,21.9266227 72.9449758,21.4977919 C72.9577721,21.4852374 72.9711372,21.4752219 72.9833648,21.4632316 L72.9833648,21.4626673 C72.9889098,21.4571659 72.9944549,21.4526519 73,21.4471504 C72.3985722,20.850455 71.7970022,20.2541827 71.1961431,19.6574873 C70.7923476,19.2574334 70.3891209,18.8568151 69.9853254,18.4561969 C69.8853718,18.3571709 69.7448964,18.1499497 69.6159378,18.0902802 C69.5282118,18.0496541 69.5138515,18.0176328 69.5149889,18 C69.5004864,18.0187613 69.4576898,18.056284 69.3315748,18.1228657 C68.9877799,18.305824 68.6668762,18.737335 68.3607594,18.9874392 C67.9898078,19.290442 67.6043537,19.575953 67.2043972,19.8398814 C66.479698,20.3186484 65.7082211,20.7264608 64.9017675,21.0520337 C63.3455909,21.6807503 61.6805032,21.9877029 60.0066002,22.0709299 C58.1171501,22.1657241 56.2244298,21.9899599 54.3527523,21.7359059 C54.2455475,21.7194015 54.1244088,21.7034614 54.0223225,21.686816 C54.0228912,21.689073 54.0233178,21.6918943 54.0238865,21.6941513 C54.01564,21.6930228 54.00782,21.6918943 54,21.6907658 C54.292183,23.3729391 54.57811,25.0597674 54.8020459,26.7525204 C59.8766463,27.3183231 65.137931,27.1222459 69.9753727,23.9163128 C69.9908705,23.9058741 70.0063682,23.894307 70.0220082,23.8838684 C70.4796905,23.5786086 70.932823,23.2413275 71.3821166,22.8797837" id="Fill-10" fill="#FFFFFF"></path>
                <g id="Group-14" transform="translate(0.000000, 18.000000)">
                    <mask id="mask-2" fill="white">
                        <use xlink:href="#path-1"></use>
                    </mask>
                    <g id="Clip-12"></g>
                    <path d="M69.7831288,0.0636854727 C69.809862,0.0299297475 69.7859294,0.0327427246 69.7831288,0.0636854727" id="Fill-11" fill="#FFFFFF" mask="url(#mask-2)"></path>
                    <path d="M18.7764622,33.1981794 C18.8855419,33.2148435 18.9984867,33.2291069 19.1064213,33.2461947 L19.1052761,33.2395573 C19.1130061,33.240687 19.1208793,33.2412519 19.1287526,33.2423817 C19.0248262,32.6139466 18.9167485,31.9869237 18.8111043,31.3590534 C18.7227812,30.834416 18.6366053,30.3092137 18.5550102,29.7835878 C18.4901636,29.3664198 18.5175051,28.7646756 18.3464417,28.3795649 C18.210593,28.0739618 18.2250511,28.1622252 17.8006135,28.1208473 C17.5406544,28.0950038 17.2806953,28.0712786 17.0201636,28.0502366 C16.4412679,28.0033511 15.8609407,27.9691756 15.2806135,27.950958 C14.252229,27.9196069 13.223272,27.9256794 12.1960327,28.0067405 C7.64159509,28.3675611 3.49713701,30.161355 0.219734151,33.297458 C0.153169734,33.3610076 0.081595092,33.416084 0.0157464213,33.4800573 L0.0167484663,33.481187 C0.0111656442,33.4861298 0.00501022495,33.4912137 0,33.4961565 L3.53177914,36.9807939 C5.7504499,34.7918626 8.67341513,33.2622939 11.8275665,32.9787214 C14.1229652,32.6653511 16.4872188,32.8925763 18.7764622,33.1981794" id="Fill-13" fill="#FFFFFF" mask="url(#mask-2)"></path>
                </g>
                <path d="M51.4610346,20.3509109 C51.0026721,17.3804877 50.614349,14.3193177 51.0577434,11.3226819 C51.501279,8.32490642 52.8808853,5.65322076 55,3.51518842 L51.5156823,0 C47.8867672,3.66106696 46.0626368,8.42120905 45.9654854,13.5736846 C45.8938928,17.4178121 46.602053,21.2107965 47.2270414,24.9864009 C47.990979,29.5990974 48.7080353,34.6029877 46.7868948,39.0330511 C44.8832641,43.4242231 40.687962,46.9167604 35.9965948,47.7680985 C34.5662947,48.0273748 33.1095887,48.1020236 31.6583897,48.0490286 C30.9358263,48.0223887 30.2148161,47.96512 29.4956416,47.889474 C29.0735697,47.8448841 28.2836498,47.5187943 28.0393592,48.0396263 C27.9251216,48.281665 28.0911827,48.7480774 28.1386287,49.031287 C28.2346504,49.6001278 28.3267183,50.1688261 28.4172329,50.7386642 C28.5280815,51.441417 28.6560164,52.1387563 28.787905,52.8376626 C30.4129315,52.830967 32.025108,53.0523491 33.6562064,52.9883848 C35.5934447,52.9115991 37.5141616,52.611152 39.3630034,52.0151014 C42.8649722,50.8855399 46.0990686,48.5927966 48.4047196,45.7018657 C50.2110577,43.8795237 51.4439484,41.1260663 52.1262675,38.6818884 C52.9503598,35.7281329 53.0463815,32.6468762 52.7947481,29.6046533 C52.5377488,26.4944773 51.9359185,23.431028 51.4610346,20.3509109" id="Fill-15" fill="#FFFFFF"></path>
                <path d="M48.2548214,46.0003067 C47.6728214,46.7228067 48.2723214,45.9828067 48.2548214,46.0003067" id="Fill-16" fill="#FFFFFF"></path>
            </g>
        </g>
    </g>
</svg>